<svg width="434" height="98" viewBox="0 0 434 98" fill="none" xmlns="http://www.w3.org/2000/svg">
<path d="M0.272728 96V2.90909H32.8182C39.303 2.90909 44.6515 4.0303 48.8636 6.27273C53.0758 8.48485 56.2121 11.4697 58.2727 15.2273C60.3333 18.9545 61.3636 23.0909 61.3636 27.6364C61.3636 31.6364 60.6515 34.9394 59.2273 37.5455C57.8333 40.1515 55.9849 42.2121 53.6818 43.7273C51.4091 45.2424 48.9394 46.3636 46.2727 47.0909V48C49.1212 48.1818 51.9849 49.1818 54.8636 51C57.7424 52.8182 60.1515 55.4242 62.0909 58.8182C64.0303 62.2121 65 66.3636 65 71.2727C65 75.9394 63.9394 80.1364 61.8182 83.8636C59.697 87.5909 56.3485 90.5455 51.7727 92.7273C47.197 94.9091 41.2424 96 33.9091 96H0.272728ZM11.5455 86H33.9091C41.2727 86 46.5 84.5758 49.5909 81.7273C52.7121 78.8485 54.2727 75.3636 54.2727 71.2727C54.2727 68.1212 53.4697 65.2121 51.8636 62.5455C50.2576 59.8485 47.9697 57.697 45 56.0909C42.0303 54.4545 38.5152 53.6364 34.4545 53.6364H11.5455V86ZM11.5455 43.8182H32.4545C35.8485 43.8182 38.9091 43.1515 41.6364 41.8182C44.3939 40.4848 46.5758 38.6061 48.1818 36.1818C49.8182 33.7576 50.6364 30.9091 50.6364 27.6364C50.6364 23.5455 49.2121 20.0758 46.3636 17.2273C43.5152 14.3485 39 12.9091 32.8182 12.9091H11.5455V43.8182ZM82.0682 96V26.1818H92.4318V36.7273H93.1591C94.4318 33.2727 96.7348 30.4697 100.068 28.3182C103.402 26.1667 107.159 25.0909 111.341 25.0909C112.129 25.0909 113.114 25.1061 114.295 25.1364C115.477 25.1667 116.371 25.2121 116.977 25.2727V36.1818C116.614 36.0909 115.78 35.9545 114.477 35.7727C113.205 35.5606 111.856 35.4545 110.432 35.4545C107.038 35.4545 104.008 36.1667 101.341 37.5909C98.7045 38.9848 96.6136 40.9242 95.0682 43.4091C93.553 45.8636 92.7955 48.6667 92.7955 51.8182V96H82.0682ZM155.932 97.4545C149.629 97.4545 144.098 95.9545 139.341 92.9545C134.614 89.9545 130.917 85.7576 128.25 80.3636C125.614 74.9697 124.295 68.6667 124.295 61.4545C124.295 54.1818 125.614 47.8333 128.25 42.4091C130.917 36.9848 134.614 32.7727 139.341 29.7727C144.098 26.7727 149.629 25.2727 155.932 25.2727C162.235 25.2727 167.75 26.7727 172.477 29.7727C177.235 32.7727 180.932 36.9848 183.568 42.4091C186.235 47.8333 187.568 54.1818 187.568 61.4545C187.568 68.6667 186.235 74.9697 183.568 80.3636C180.932 85.7576 177.235 89.9545 172.477 92.9545C167.75 95.9545 162.235 97.4545 155.932 97.4545ZM155.932 87.8182C160.72 87.8182 164.659 86.5909 167.75 84.1364C170.841 81.6818 173.129 78.4545 174.614 74.4545C176.098 70.4545 176.841 66.1212 176.841 61.4545C176.841 56.7879 176.098 52.4394 174.614 48.4091C173.129 44.3788 170.841 41.1212 167.75 38.6364C164.659 36.1515 160.72 34.9091 155.932 34.9091C151.144 34.9091 147.205 36.1515 144.114 38.6364C141.023 41.1212 138.735 44.3788 137.25 48.4091C135.765 52.4394 135.023 56.7879 135.023 61.4545C135.023 66.1212 135.765 70.4545 137.25 74.4545C138.735 78.4545 141.023 81.6818 144.114 84.1364C147.205 86.5909 151.144 87.8182 155.932 87.8182ZM203.943 96V26.1818H214.307V37.0909H215.216C216.67 33.3636 219.019 30.4697 222.261 28.4091C225.504 26.3182 229.398 25.2727 233.943 25.2727C238.549 25.2727 242.383 26.3182 245.443 28.4091C248.534 30.4697 250.943 33.3636 252.67 37.0909H253.398C255.186 33.4848 257.867 30.6212 261.443 28.5C265.019 26.3485 269.307 25.2727 274.307 25.2727C280.549 25.2727 285.655 27.2273 289.625 31.1364C293.595 35.0151 295.58 41.0606 295.58 49.2727V96H284.852V49.2727C284.852 44.1212 283.443 40.4394 280.625 38.2273C277.807 36.0151 274.489 34.9091 270.67 34.9091C265.761 34.9091 261.958 36.3939 259.261 39.3636C256.564 42.303 255.216 46.0303 255.216 50.5455V96H244.307V48.1818C244.307 44.2121 243.019 41.0152 240.443 38.5909C237.867 36.1364 234.549 34.9091 230.489 34.9091C227.701 34.9091 225.095 35.6515 222.67 37.1364C220.277 38.6212 218.337 40.6818 216.852 43.3182C215.398 45.9242 214.67 48.9394 214.67 52.3636V96H203.943ZM315.193 96V26.1818H325.92V96H315.193ZM320.648 14.5455C318.557 14.5455 316.754 13.8333 315.239 12.4091C313.754 10.9848 313.011 9.27273 313.011 7.27273C313.011 5.27273 313.754 3.56061 315.239 2.13636C316.754 0.71212 318.557 0 320.648 0C322.739 0 324.527 0.71212 326.011 2.13636C327.527 3.56061 328.284 5.27273 328.284 7.27273C328.284 9.27273 327.527 10.9848 326.011 12.4091C324.527 13.8333 322.739 14.5455 320.648 14.5455ZM356.295 54V96H345.568V26.1818H355.932V37.0909H356.841C358.477 33.5455 360.962 30.697 364.295 28.5455C367.629 26.3636 371.932 25.2727 377.205 25.2727C381.932 25.2727 386.068 26.2424 389.614 28.1818C393.159 30.0909 395.917 33 397.886 36.9091C399.856 40.7879 400.841 45.697 400.841 51.6364V96H390.114V52.3636C390.114 46.8788 388.689 42.6061 385.841 39.5455C382.992 36.4545 379.083 34.9091 374.114 34.9091C370.689 34.9091 367.629 35.6515 364.932 37.1364C362.265 38.6212 360.159 40.7879 358.614 43.6364C357.068 46.4848 356.295 49.9394 356.295 54ZM420.443 96V26.1818H431.17V96H420.443ZM425.898 14.5455C423.807 14.5455 422.004 13.8333 420.489 12.4091C419.004 10.9848 418.261 9.27273 418.261 7.27273C418.261 5.27273 419.004 3.56061 420.489 2.13636C422.004 0.71212 423.807 0 425.898 0C427.989 0 429.777 0.71212 431.261 2.13636C432.777 3.56061 433.534 5.27273 433.534 7.27273C433.534 9.27273 432.777 10.9848 431.261 12.4091C429.777 13.8333 427.989 14.5455 425.898 14.5455Z" fill="url(#paint0_diamond_1_3)"/>
<defs>
<radialGradient id="paint0_diamond_1_3" cx="0" cy="0" r="1" gradientUnits="userSpaceOnUse" gradientTransform="translate(9.49999 184) rotate(-19.3718) scale(512.516 470.442)">
<stop offset="0.04" stop-color="white" stop-opacity="0.79"/>
<stop offset="0.687689" stop-color="#A998FF"/>
<stop offset="0.9999" stop-color="#3295DC" stop-opacity="0.76"/>
</radialGradient>
</defs>
</svg>
