<svg width="264" height="148" viewBox="0 0 264 148" fill="none" xmlns="http://www.w3.org/2000/svg">
<path d="M70.781 62V39.6H80.957C83.389 39.6 85.533 40.0693 87.389 41.008C89.245 41.9253 90.6957 43.216 91.741 44.88C92.7863 46.544 93.309 48.5173 93.309 50.8C93.309 53.0613 92.7863 55.0347 91.741 56.72C90.6957 58.384 89.245 59.6853 87.389 60.624C85.533 61.5413 83.389 62 80.957 62H70.781ZM75.965 57.744H80.701C82.1943 57.744 83.485 57.4667 84.573 56.912C85.6823 56.336 86.5357 55.5253 87.133 54.48C87.7517 53.4347 88.061 52.208 88.061 50.8C88.061 49.3707 87.7517 48.144 87.133 47.12C86.5357 46.0747 85.6823 45.2747 84.573 44.72C83.485 44.144 82.1943 43.856 80.701 43.856H75.965V57.744ZM96.8665 62V44.784H101.859V62H96.8665ZM99.3625 42.384C98.4452 42.384 97.6985 42.1173 97.1225 41.584C96.5465 41.0507 96.2585 40.3893 96.2585 39.6C96.2585 38.8107 96.5465 38.1493 97.1225 37.616C97.6985 37.0827 98.4452 36.816 99.3625 36.816C100.28 36.816 101.027 37.072 101.603 37.584C102.179 38.0747 102.467 38.7147 102.467 39.504C102.467 40.336 102.179 41.0293 101.603 41.584C101.048 42.1173 100.301 42.384 99.3625 42.384ZM112.284 62.256C110.812 62.256 109.393 62.0853 108.028 61.744C106.684 61.3813 105.617 60.9333 104.828 60.4L106.492 56.816C107.281 57.3067 108.209 57.712 109.276 58.032C110.364 58.3307 111.43 58.48 112.476 58.48C113.628 58.48 114.438 58.3413 114.908 58.064C115.398 57.7867 115.644 57.4027 115.644 56.912C115.644 56.5067 115.452 56.208 115.068 56.016C114.705 55.8027 114.214 55.6427 113.595 55.536C112.977 55.4293 112.294 55.3227 111.548 55.216C110.822 55.1093 110.086 54.9707 109.34 54.8C108.593 54.608 107.91 54.3307 107.292 53.968C106.673 53.6053 106.172 53.1147 105.788 52.496C105.425 51.8773 105.243 51.0773 105.243 50.096C105.243 49.008 105.553 48.048 106.172 47.216C106.812 46.384 107.729 45.7333 108.924 45.264C110.118 44.7733 111.548 44.528 113.212 44.528C114.385 44.528 115.58 44.656 116.796 44.912C118.012 45.168 119.025 45.5413 119.836 46.032L118.172 49.584C117.34 49.0933 116.497 48.7627 115.644 48.592C114.812 48.4 114.001 48.304 113.212 48.304C112.102 48.304 111.292 48.4533 110.78 48.752C110.268 49.0507 110.012 49.4347 110.012 49.904C110.012 50.3307 110.193 50.6507 110.556 50.864C110.94 51.0773 111.441 51.248 112.06 51.376C112.678 51.504 113.35 51.6213 114.076 51.728C114.822 51.8133 115.569 51.952 116.316 52.144C117.062 52.336 117.734 52.6133 118.332 52.976C118.95 53.3173 119.452 53.7973 119.836 54.416C120.22 55.0133 120.412 55.8027 120.412 56.784C120.412 57.8507 120.092 58.8 119.452 59.632C118.812 60.4427 117.884 61.0827 116.668 61.552C115.473 62.0213 114.012 62.256 112.284 62.256ZM131.812 62.256C129.956 62.256 128.302 61.8827 126.852 61.136C125.401 60.368 124.26 59.312 123.428 57.968C122.617 56.624 122.212 55.0987 122.212 53.392C122.212 51.664 122.617 50.1387 123.428 48.816C124.26 47.472 125.401 46.4267 126.852 45.68C128.302 44.912 129.956 44.528 131.812 44.528C133.625 44.528 135.204 44.912 136.548 45.68C137.892 46.4267 138.884 47.504 139.524 48.912L135.652 50.992C135.204 50.1813 134.638 49.584 133.956 49.2C133.294 48.816 132.569 48.624 131.78 48.624C130.926 48.624 130.158 48.816 129.476 49.2C128.793 49.584 128.249 50.128 127.844 50.832C127.46 51.536 127.268 52.3893 127.268 53.392C127.268 54.3947 127.46 55.248 127.844 55.952C128.249 56.656 128.793 57.2 129.476 57.584C130.158 57.968 130.926 58.16 131.78 58.16C132.569 58.16 133.294 57.9787 133.956 57.616C134.638 57.232 135.204 56.624 135.652 55.792L139.524 57.904C138.884 59.2907 137.892 60.368 136.548 61.136C135.204 61.8827 133.625 62.256 131.812 62.256ZM150.371 62.256C148.536 62.256 146.904 61.872 145.475 61.104C144.067 60.336 142.947 59.2907 142.115 57.968C141.304 56.624 140.899 55.0987 140.899 53.392C140.899 51.664 141.304 50.1387 142.115 48.816C142.947 47.472 144.067 46.4267 145.475 45.68C146.904 44.912 148.536 44.528 150.371 44.528C152.184 44.528 153.806 44.912 155.235 45.68C156.664 46.4267 157.784 47.4613 158.595 48.784C159.406 50.1067 159.811 51.6427 159.811 53.392C159.811 55.0987 159.406 56.624 158.595 57.968C157.784 59.2907 156.664 60.336 155.235 61.104C153.806 61.872 152.184 62.256 150.371 62.256ZM150.371 58.16C151.203 58.16 151.95 57.968 152.611 57.584C153.272 57.2 153.795 56.656 154.179 55.952C154.563 55.2267 154.755 54.3733 154.755 53.392C154.755 52.3893 154.563 51.536 154.179 50.832C153.795 50.128 153.272 49.584 152.611 49.2C151.95 48.816 151.203 48.624 150.371 48.624C149.539 48.624 148.792 48.816 148.131 49.2C147.47 49.584 146.936 50.128 146.531 50.832C146.147 51.536 145.955 52.3893 145.955 53.392C145.955 54.3733 146.147 55.2267 146.531 55.952C146.936 56.656 147.47 57.2 148.131 57.584C148.792 57.968 149.539 58.16 150.371 58.16ZM167.351 62L160.119 44.784H165.271L171.287 59.6H168.727L174.967 44.784H179.767L172.503 62H167.351ZM189.879 62.256C187.917 62.256 186.189 61.872 184.695 61.104C183.223 60.336 182.082 59.2907 181.271 57.968C180.461 56.624 180.055 55.0987 180.055 53.392C180.055 51.664 180.45 50.1387 181.239 48.816C182.05 47.472 183.149 46.4267 184.535 45.68C185.922 44.912 187.49 44.528 189.239 44.528C190.925 44.528 192.439 44.8907 193.783 45.616C195.149 46.32 196.226 47.344 197.015 48.688C197.805 50.0107 198.199 51.6 198.199 53.456C198.199 53.648 198.189 53.872 198.167 54.128C198.146 54.3627 198.125 54.5867 198.103 54.8H184.119V51.888H195.479L193.559 52.752C193.559 51.856 193.378 51.0773 193.015 50.416C192.653 49.7547 192.151 49.2427 191.511 48.88C190.871 48.496 190.125 48.304 189.271 48.304C188.418 48.304 187.661 48.496 186.999 48.88C186.359 49.2427 185.858 49.7653 185.495 50.448C185.133 51.1093 184.951 51.8987 184.951 52.816V53.584C184.951 54.5227 185.154 55.3547 185.559 56.08C185.986 56.784 186.573 57.328 187.319 57.712C188.087 58.0747 188.983 58.256 190.007 58.256C190.925 58.256 191.725 58.1173 192.407 57.84C193.111 57.5627 193.751 57.1467 194.327 56.592L196.983 59.472C196.194 60.368 195.202 61.0613 194.007 61.552C192.813 62.0213 191.437 62.256 189.879 62.256ZM201.523 62V44.784H206.291V49.648L205.619 48.24C206.131 47.024 206.952 46.1067 208.083 45.488C209.213 44.848 210.589 44.528 212.211 44.528V49.136C211.997 49.1147 211.805 49.104 211.635 49.104C211.464 49.0827 211.283 49.072 211.091 49.072C209.725 49.072 208.616 49.4667 207.763 50.256C206.931 51.024 206.515 52.2293 206.515 53.872V62H201.523ZM53.2498 101V78.6H57.5378L67.0738 94.408H64.8018L74.1778 78.6H78.4338L78.4978 101H73.6338L73.6018 86.056H74.4978L67.0098 98.632H64.6738L57.0258 86.056H58.1138V101H53.2498ZM85.6363 107.464C84.7403 107.464 83.8549 107.325 82.9803 107.048C82.1056 106.771 81.3909 106.387 80.8362 105.896L82.6603 102.344C83.0443 102.685 83.4816 102.952 83.9723 103.144C84.4843 103.336 84.9856 103.432 85.4763 103.432C86.1803 103.432 86.7349 103.261 87.1403 102.92C87.5669 102.6 87.9509 102.056 88.2923 101.288L89.1883 99.176L89.5723 98.632L95.7483 83.784H100.548L92.7723 102.056C92.2176 103.443 91.5776 104.531 90.8523 105.32C90.1483 106.109 89.3589 106.664 88.4843 106.984C87.6309 107.304 86.6816 107.464 85.6363 107.464ZM88.5803 101.672L80.9002 83.784H86.0523L92.0043 98.184L88.5803 101.672ZM112 101V78.6H117.184V96.776H128.416V101H112ZM141.645 101V97.64L141.325 96.904V90.888C141.325 89.8213 140.995 88.9893 140.333 88.392C139.693 87.7947 138.701 87.496 137.357 87.496C136.44 87.496 135.533 87.6453 134.637 87.944C133.763 88.2213 133.016 88.6053 132.397 89.096L130.605 85.608C131.544 84.9467 132.675 84.4347 133.997 84.072C135.32 83.7093 136.664 83.528 138.029 83.528C140.653 83.528 142.691 84.1467 144.141 85.384C145.592 86.6213 146.317 88.552 146.317 91.176V101H141.645ZM136.397 101.256C135.053 101.256 133.901 101.032 132.941 100.584C131.981 100.115 131.245 99.4853 130.733 98.696C130.221 97.9067 129.965 97.0213 129.965 96.04C129.965 95.016 130.211 94.12 130.701 93.352C131.213 92.584 132.013 91.9867 133.101 91.56C134.189 91.112 135.608 90.888 137.357 90.888H141.933V93.8H137.901C136.728 93.8 135.917 93.992 135.469 94.376C135.043 94.76 134.829 95.24 134.829 95.816C134.829 96.456 135.075 96.968 135.565 97.352C136.077 97.7147 136.771 97.896 137.645 97.896C138.477 97.896 139.224 97.704 139.885 97.32C140.547 96.9147 141.027 96.328 141.325 95.56L142.093 97.864C141.731 98.9733 141.069 99.816 140.109 100.392C139.149 100.968 137.912 101.256 136.397 101.256ZM157.875 101.256C155.849 101.256 154.27 100.744 153.139 99.72C152.009 98.6747 151.443 97.128 151.443 95.08V79.976H156.435V95.016C156.435 95.7413 156.627 96.3067 157.011 96.712C157.395 97.096 157.918 97.288 158.579 97.288C159.369 97.288 160.041 97.0747 160.595 96.648L161.939 100.168C161.427 100.531 160.809 100.808 160.083 101C159.379 101.171 158.643 101.256 157.875 101.256ZM148.787 88.008V84.168H160.723V88.008H148.787ZM172.754 101.256C170.792 101.256 169.064 100.872 167.57 100.104C166.098 99.336 164.957 98.2907 164.146 96.968C163.336 95.624 162.93 94.0987 162.93 92.392C162.93 90.664 163.325 89.1387 164.114 87.816C164.925 86.472 166.024 85.4267 167.41 84.68C168.797 83.912 170.365 83.528 172.114 83.528C173.8 83.528 175.314 83.8907 176.658 84.616C178.024 85.32 179.101 86.344 179.89 87.688C180.68 89.0107 181.074 90.6 181.074 92.456C181.074 92.648 181.064 92.872 181.042 93.128C181.021 93.3627 181 93.5867 180.978 93.8H166.994V90.888H178.354L176.434 91.752C176.434 90.856 176.253 90.0773 175.89 89.416C175.528 88.7547 175.026 88.2427 174.386 87.88C173.746 87.496 173 87.304 172.146 87.304C171.293 87.304 170.536 87.496 169.874 87.88C169.234 88.2427 168.733 88.7653 168.37 89.448C168.008 90.1093 167.826 90.8987 167.826 91.816V92.584C167.826 93.5227 168.029 94.3547 168.434 95.08C168.861 95.784 169.448 96.328 170.194 96.712C170.962 97.0747 171.858 97.256 172.882 97.256C173.8 97.256 174.6 97.1173 175.282 96.84C175.986 96.5627 176.626 96.1467 177.202 95.592L179.858 98.472C179.069 99.368 178.077 100.061 176.882 100.552C175.688 101.021 174.312 101.256 172.754 101.256ZM190.19 101.256C188.718 101.256 187.299 101.085 185.934 100.744C184.59 100.381 183.523 99.9333 182.734 99.4L184.398 95.816C185.187 96.3067 186.115 96.712 187.182 97.032C188.27 97.3307 189.336 97.48 190.382 97.48C191.534 97.48 192.344 97.3413 192.814 97.064C193.304 96.7867 193.55 96.4027 193.55 95.912C193.55 95.5067 193.358 95.208 192.974 95.016C192.611 94.8027 192.12 94.6427 191.502 94.536C190.883 94.4293 190.2 94.3227 189.454 94.216C188.728 94.1093 187.992 93.9707 187.246 93.8C186.499 93.608 185.816 93.3307 185.198 92.968C184.579 92.6053 184.078 92.1147 183.694 91.496C183.331 90.8773 183.15 90.0773 183.15 89.096C183.15 88.008 183.459 87.048 184.078 86.216C184.718 85.384 185.635 84.7333 186.83 84.264C188.024 83.7733 189.454 83.528 191.118 83.528C192.291 83.528 193.486 83.656 194.702 83.912C195.918 84.168 196.931 84.5413 197.742 85.032L196.078 88.584C195.246 88.0933 194.403 87.7627 193.55 87.592C192.718 87.4 191.907 87.304 191.118 87.304C190.008 87.304 189.198 87.4533 188.686 87.752C188.174 88.0507 187.918 88.4347 187.918 88.904C187.918 89.3307 188.099 89.6507 188.462 89.864C188.846 90.0773 189.347 90.248 189.966 90.376C190.584 90.504 191.256 90.6213 191.982 90.728C192.728 90.8133 193.475 90.952 194.222 91.144C194.968 91.336 195.64 91.6133 196.238 91.976C196.856 92.3173 197.358 92.7973 197.742 93.416C198.126 94.0133 198.318 94.8027 198.318 95.784C198.318 96.8507 197.998 97.8 197.358 98.632C196.718 99.4427 195.79 100.083 194.574 100.552C193.379 101.021 191.918 101.256 190.19 101.256ZM208.438 101.256C206.411 101.256 204.832 100.744 203.702 99.72C202.571 98.6747 202.006 97.128 202.006 95.08V79.976H206.998V95.016C206.998 95.7413 207.19 96.3067 207.574 96.712C207.958 97.096 208.48 97.288 209.142 97.288C209.931 97.288 210.603 97.0747 211.158 96.648L212.502 100.168C211.99 100.531 211.371 100.808 210.646 101C209.942 101.171 209.206 101.256 208.438 101.256ZM199.35 88.008V84.168H211.286V88.008H199.35ZM80.9685 140V117.6H86.1525V140H80.9685ZM101.581 122.528C102.946 122.528 104.162 122.805 105.229 123.36C106.317 123.893 107.17 124.725 107.789 125.856C108.407 126.965 108.717 128.395 108.717 130.144V140H103.725V130.912C103.725 129.525 103.415 128.501 102.797 127.84C102.199 127.179 101.346 126.848 100.237 126.848C99.4472 126.848 98.7325 127.019 98.0925 127.36C97.4738 127.68 96.9832 128.181 96.6205 128.864C96.2792 129.547 96.1085 130.421 96.1085 131.488V140H91.1165V122.784H95.8845V127.552L94.9885 126.112C95.6072 124.96 96.4925 124.075 97.6445 123.456C98.7965 122.837 100.109 122.528 101.581 122.528ZM119.034 140.256C117.562 140.256 116.143 140.085 114.778 139.744C113.434 139.381 112.367 138.933 111.578 138.4L113.242 134.816C114.031 135.307 114.959 135.712 116.026 136.032C117.114 136.331 118.18 136.48 119.226 136.48C120.378 136.48 121.188 136.341 121.658 136.064C122.148 135.787 122.394 135.403 122.394 134.912C122.394 134.507 122.202 134.208 121.818 134.016C121.455 133.803 120.964 133.643 120.345 133.536C119.727 133.429 119.044 133.323 118.298 133.216C117.572 133.109 116.836 132.971 116.09 132.8C115.343 132.608 114.66 132.331 114.042 131.968C113.423 131.605 112.922 131.115 112.538 130.496C112.175 129.877 111.993 129.077 111.993 128.096C111.993 127.008 112.303 126.048 112.922 125.216C113.562 124.384 114.479 123.733 115.674 123.264C116.868 122.773 118.298 122.528 119.962 122.528C121.135 122.528 122.33 122.656 123.546 122.912C124.762 123.168 125.775 123.541 126.586 124.032L124.922 127.584C124.09 127.093 123.247 126.763 122.394 126.592C121.562 126.4 120.751 126.304 119.962 126.304C118.852 126.304 118.042 126.453 117.53 126.752C117.018 127.051 116.762 127.435 116.762 127.904C116.762 128.331 116.943 128.651 117.306 128.864C117.69 129.077 118.191 129.248 118.81 129.376C119.428 129.504 120.1 129.621 120.826 129.728C121.572 129.813 122.319 129.952 123.066 130.144C123.812 130.336 124.484 130.613 125.082 130.976C125.7 131.317 126.202 131.797 126.586 132.416C126.97 133.013 127.162 133.803 127.162 134.784C127.162 135.851 126.842 136.8 126.202 137.632C125.562 138.443 124.634 139.083 123.418 139.552C122.223 140.021 120.762 140.256 119.034 140.256ZM130.242 140V122.784H135.234V140H130.242ZM132.738 120.384C131.82 120.384 131.074 120.117 130.498 119.584C129.922 119.051 129.634 118.389 129.634 117.6C129.634 116.811 129.922 116.149 130.498 115.616C131.074 115.083 131.82 114.816 132.738 114.816C133.655 114.816 134.402 115.072 134.978 115.584C135.554 116.075 135.842 116.715 135.842 117.504C135.842 118.336 135.554 119.029 134.978 119.584C134.423 120.117 133.676 120.384 132.738 120.384ZM147.963 146.464C146.341 146.464 144.773 146.261 143.259 145.856C141.765 145.472 140.517 144.885 139.515 144.096L141.499 140.512C142.224 141.109 143.141 141.579 144.251 141.92C145.381 142.283 146.491 142.464 147.579 142.464C149.349 142.464 150.629 142.069 151.419 141.28C152.229 140.491 152.635 139.317 152.635 137.76V135.168L152.955 130.848L152.891 126.496V122.784H157.627V137.12C157.627 140.32 156.795 142.677 155.131 144.192C153.467 145.707 151.077 146.464 147.963 146.464ZM147.195 139.168C145.595 139.168 144.144 138.827 142.843 138.144C141.563 137.44 140.528 136.469 139.739 135.232C138.971 133.973 138.587 132.512 138.587 130.848C138.587 129.163 138.971 127.701 139.739 126.464C140.528 125.205 141.563 124.235 142.843 123.552C144.144 122.869 145.595 122.528 147.195 122.528C148.645 122.528 149.925 122.827 151.035 123.424C152.144 124 153.008 124.907 153.627 126.144C154.245 127.36 154.555 128.928 154.555 130.848C154.555 132.747 154.245 134.315 153.627 135.552C153.008 136.768 152.144 137.675 151.035 138.272C149.925 138.869 148.645 139.168 147.195 139.168ZM148.187 135.072C149.061 135.072 149.84 134.901 150.523 134.56C151.205 134.197 151.739 133.696 152.123 133.056C152.507 132.416 152.699 131.68 152.699 130.848C152.699 129.995 152.507 129.259 152.123 128.64C151.739 128 151.205 127.509 150.523 127.168C149.84 126.805 149.061 126.624 148.187 126.624C147.312 126.624 146.533 126.805 145.851 127.168C145.168 127.509 144.624 128 144.219 128.64C143.835 129.259 143.643 129.995 143.643 130.848C143.643 131.68 143.835 132.416 144.219 133.056C144.624 133.696 145.168 134.197 145.851 134.56C146.533 134.901 147.312 135.072 148.187 135.072ZM172.737 122.528C174.102 122.528 175.318 122.805 176.385 123.36C177.473 123.893 178.326 124.725 178.945 125.856C179.563 126.965 179.873 128.395 179.873 130.144V140H174.881V130.912C174.881 129.525 174.571 128.501 173.953 127.84C173.355 127.179 172.502 126.848 171.393 126.848C170.603 126.848 169.889 127.019 169.249 127.36C168.63 127.68 168.139 128.181 167.777 128.864C167.435 129.547 167.265 130.421 167.265 131.488V140H162.273V116.256H167.265V127.552L166.145 126.112C166.763 124.96 167.649 124.075 168.801 123.456C169.953 122.837 171.265 122.528 172.737 122.528ZM191.438 140.256C189.411 140.256 187.832 139.744 186.702 138.72C185.571 137.675 185.006 136.128 185.006 134.08V118.976H189.998V134.016C189.998 134.741 190.19 135.307 190.574 135.712C190.958 136.096 191.48 136.288 192.142 136.288C192.931 136.288 193.603 136.075 194.158 135.648L195.502 139.168C194.99 139.531 194.371 139.808 193.646 140C192.942 140.171 192.206 140.256 191.438 140.256ZM182.35 127.008V123.168H194.286V127.008H182.35ZM204.096 140.256C202.624 140.256 201.205 140.085 199.84 139.744C198.496 139.381 197.429 138.933 196.64 138.4L198.304 134.816C199.093 135.307 200.021 135.712 201.088 136.032C202.176 136.331 203.243 136.48 204.288 136.48C205.44 136.48 206.251 136.341 206.72 136.064C207.211 135.787 207.456 135.403 207.456 134.912C207.456 134.507 207.264 134.208 206.88 134.016C206.517 133.803 206.027 133.643 205.408 133.536C204.789 133.429 204.107 133.323 203.36 133.216C202.635 133.109 201.899 132.971 201.152 132.8C200.405 132.608 199.723 132.331 199.104 131.968C198.485 131.605 197.984 131.115 197.6 130.496C197.237 129.877 197.056 129.077 197.056 128.096C197.056 127.008 197.365 126.048 197.984 125.216C198.624 124.384 199.541 123.733 200.736 123.264C201.931 122.773 203.36 122.528 205.024 122.528C206.197 122.528 207.392 122.656 208.608 122.912C209.824 123.168 210.837 123.541 211.648 124.032L209.984 127.584C209.152 127.093 208.309 126.763 207.456 126.592C206.624 126.4 205.813 126.304 205.024 126.304C203.915 126.304 203.104 126.453 202.592 126.752C202.08 127.051 201.824 127.435 201.824 127.904C201.824 128.331 202.005 128.651 202.368 128.864C202.752 129.077 203.253 129.248 203.872 129.376C204.491 129.504 205.163 129.621 205.888 129.728C206.635 129.813 207.381 129.952 208.128 130.144C208.875 130.336 209.547 130.613 210.144 130.976C210.763 131.317 211.264 131.797 211.648 132.416C212.032 133.013 212.224 133.803 212.224 134.784C212.224 135.851 211.904 136.8 211.264 137.632C210.624 138.443 209.696 139.083 208.48 139.552C207.285 140.021 205.824 140.256 204.096 140.256Z" fill="black"/>
<g clip-path="url(#clip0_2_91)">
<path d="M119.542 14.7111C118.885 14.7133 118.239 14.8848 117.667 15.2089C118.472 13.124 119.808 11.2856 121.542 9.87555C121.641 9.79384 121.724 9.69338 121.784 9.57992C121.844 9.46646 121.882 9.34221 121.894 9.21427C121.907 9.08633 121.894 8.95721 121.856 8.83427C121.819 8.71133 121.757 8.59699 121.676 8.49777C121.594 8.39855 121.493 8.31639 121.38 8.25599C121.266 8.1956 121.142 8.15814 121.014 8.14576C120.886 8.13338 120.757 8.14631 120.634 8.18384C120.511 8.22136 120.397 8.28273 120.298 8.36444C116.742 11.2533 115.16 15.2533 115.16 17.7333C115.166 18.6102 115.427 19.4663 115.912 20.1972C116.397 20.928 117.084 21.5019 117.889 21.8489C118.41 22.1014 118.981 22.235 119.56 22.24C120.07 22.2648 120.579 22.1858 121.057 22.0078C121.536 21.8298 121.973 21.5565 122.342 21.2045C122.712 20.8525 123.006 20.4291 123.207 19.96C123.408 19.4909 123.512 18.9859 123.512 18.4755C123.512 17.9652 123.408 17.4602 123.207 16.9911C123.006 16.522 122.712 16.0986 122.342 15.7466C121.973 15.3946 121.536 15.1213 121.057 14.9433C120.579 14.7653 120.07 14.6863 119.56 14.7111H119.542Z" fill="black"/>
<path d="M129.444 14.7111C128.787 14.7125 128.141 14.884 127.569 15.2089C128.374 13.1262 129.706 11.2884 131.436 9.87556C131.544 9.79754 131.635 9.69821 131.703 9.58367C131.772 9.46912 131.816 9.3418 131.833 9.20952C131.851 9.07724 131.841 8.94281 131.804 8.8145C131.768 8.68619 131.705 8.56672 131.621 8.46344C131.536 8.36016 131.432 8.27525 131.313 8.21394C131.195 8.15263 131.065 8.11622 130.932 8.10695C130.799 8.09768 130.665 8.11574 130.539 8.16002C130.413 8.2043 130.298 8.27387 130.2 8.36444C126.644 11.2533 125.062 15.2533 125.062 17.7333C125.066 18.6003 125.32 19.4477 125.793 20.1743C126.266 20.901 126.938 21.4761 127.729 21.8311C128.263 22.091 128.85 22.2248 129.444 22.2222C129.954 22.247 130.464 22.168 130.942 21.99C131.42 21.812 131.857 21.5387 132.227 21.1867C132.596 20.8347 132.891 20.4113 133.092 19.9422C133.293 19.4732 133.396 18.9681 133.396 18.4578C133.396 17.9474 133.293 17.4424 133.092 16.9733C132.891 16.5042 132.596 16.0808 132.227 15.7288C131.857 15.3768 131.42 15.1036 130.942 14.9256C130.464 14.7476 129.954 14.6686 129.444 14.6933V14.7111Z" fill="black"/>
</g>
<g clip-path="url(#clip1_2_91)">
<path d="M253.458 133.289C254.115 133.287 254.761 133.115 255.333 132.791C254.528 134.876 253.192 136.714 251.458 138.124C251.359 138.206 251.276 138.307 251.216 138.42C251.156 138.534 251.118 138.658 251.106 138.786C251.093 138.914 251.106 139.043 251.144 139.166C251.181 139.289 251.243 139.403 251.324 139.502C251.406 139.601 251.507 139.684 251.62 139.744C251.734 139.804 251.858 139.842 251.986 139.854C252.114 139.867 252.243 139.854 252.366 139.816C252.489 139.779 252.603 139.717 252.702 139.636C256.258 136.747 257.84 132.747 257.84 130.267C257.834 129.39 257.573 128.534 257.088 127.803C256.603 127.072 255.916 126.498 255.111 126.151C254.59 125.899 254.019 125.765 253.44 125.76C252.93 125.735 252.421 125.814 251.943 125.992C251.464 126.17 251.027 126.444 250.658 126.796C250.288 127.148 249.994 127.571 249.793 128.04C249.592 128.509 249.488 129.014 249.488 129.524C249.488 130.035 249.592 130.54 249.793 131.009C249.994 131.478 250.288 131.901 250.658 132.253C251.027 132.605 251.464 132.879 251.943 133.057C252.421 133.235 252.93 133.314 253.44 133.289H253.458Z" fill="black"/>
<path d="M243.556 133.289C244.213 133.287 244.859 133.116 245.431 132.791C244.626 134.874 243.294 136.712 241.564 138.124C241.456 138.202 241.365 138.302 241.297 138.416C241.228 138.531 241.184 138.658 241.167 138.79C241.149 138.923 241.159 139.057 241.196 139.186C241.232 139.314 241.295 139.433 241.379 139.537C241.464 139.64 241.568 139.725 241.687 139.786C241.805 139.847 241.935 139.884 242.068 139.893C242.201 139.902 242.335 139.884 242.461 139.84C242.587 139.796 242.702 139.726 242.8 139.636C246.356 136.747 247.938 132.747 247.938 130.267C247.934 129.4 247.68 128.552 247.207 127.826C246.734 127.099 246.062 126.524 245.271 126.169C244.737 125.909 244.15 125.775 243.556 125.778C243.046 125.753 242.536 125.832 242.058 126.01C241.58 126.188 241.143 126.461 240.773 126.813C240.404 127.165 240.109 127.589 239.908 128.058C239.707 128.527 239.604 129.032 239.604 129.542C239.604 130.053 239.707 130.558 239.908 131.027C240.109 131.496 240.404 131.919 240.773 132.271C241.143 132.623 241.58 132.896 242.058 133.074C242.536 133.252 243.046 133.331 243.556 133.307V133.289Z" fill="black"/>
</g>
<path d="M137.5 15H238C244.075 15 249 19.9249 249 26V117.5" stroke="black" stroke-width="2"/>
<g clip-path="url(#clip2_2_91)">
<path d="M43.1631 36.099L40.6732 34.9451C39.0823 34.1944 38.2755 32.7333 38.0266 30.9912L37.5681 25.2941C37.5518 25.1807 37.4973 25.0247 37.274 24.9973C37.086 24.9742 36.96 25.108 36.9168 25.2141L35.0934 30.6329C34.4286 32.2628 33.2942 33.4856 31.5689 33.8291L28.8739 34.3464C28.4926 34.4205 28.4235 34.9372 28.773 35.1066L31.2736 36.3261C32.8588 37.078 33.6583 38.5363 33.91 40.2712L34.3779 45.9071C34.3942 46.0206 34.4314 46.2254 34.6659 46.2542C34.9134 46.2845 34.986 46.0932 35.0292 45.9871L36.8467 40.6318C37.5108 39.0075 38.6394 37.7859 40.3591 37.4417L43.0805 36.8634C43.4571 36.7812 43.515 36.2631 43.1631 36.099Z" fill="#FDD835"/>
<path d="M43.3802 36.3618C43.3518 36.2544 43.2827 36.1553 43.1631 36.099L40.6733 34.9451C39.0823 34.1944 38.2756 32.7333 38.0266 30.9912L37.5681 25.2941C37.5592 25.2288 37.5138 25.1061 37.449 25.0641L37.1327 30.6869C37.0937 33.2663 37.181 34.4936 39.1703 35.093C40.8789 35.6089 42.8556 36.2029 43.3802 36.3618Z" fill="#FFEE58"/>
<path d="M43.3501 36.6528L38.7273 37.1317C37.0942 37.3393 36.1087 38.1496 35.8139 40.5503L34.6659 46.2542C34.8184 46.2578 34.9513 46.191 35.0293 45.9871L36.8467 40.6318C37.5108 39.0075 38.6394 37.7859 40.3592 37.4417L43.0805 36.8634C43.2088 36.8338 43.2982 36.7522 43.3501 36.6528Z" fill="#F4B400"/>
<path d="M27.7222 39.1109C26.2348 38.4088 26.1642 37.8145 26.0231 36.8092L25.6533 34.4516C25.6323 34.2997 25.2489 34.2527 25.1899 34.3947L24.4904 36.4453C24.109 37.3827 23.4561 38.0846 22.4646 38.2821L20.8651 38.7545C20.6464 38.7975 20.6061 39.0948 20.8077 39.1914L22.271 39.9208C23.1815 40.3518 23.6415 41.1904 23.7871 42.1887L23.981 44.2565C24.0038 44.4085 24.3854 44.4554 24.4425 44.3131L25.206 42.3723C25.5876 41.4331 26.0844 40.7101 27.413 40.5521L28.9162 40.187C29.1354 40.1402 29.1701 39.8422 28.9664 39.7473L27.7222 39.1109Z" fill="#FDD835"/>
<path d="M25.5006 36.711C25.4792 38.1932 25.5094 38.6088 26.6576 39.0577L29.068 39.8429C29.0463 39.8043 29.0127 39.77 28.9643 39.7489L27.7203 39.1107C26.4171 38.4784 26.1138 37.8404 26.0042 36.6255C25.8945 35.4106 25.7176 34.6049 25.7176 34.6049C25.654 34.3383 25.5166 34.3346 25.5166 34.3346L25.5006 36.711Z" fill="#FFEE58"/>
<path d="M24.9183 41.8232C25.0876 40.4442 25.9252 39.8537 27.1237 40.0009L28.9978 40.1535C28.9978 40.1535 28.8722 40.2836 28.6788 40.3052L27.413 40.5521C26.3292 40.8403 25.8327 40.9909 25.3392 42.3641C25.3392 42.3641 24.7243 43.9567 24.6249 44.1202C24.4872 44.3488 24.3527 44.3833 24.3527 44.3833L24.9183 41.8232Z" fill="#F4B400"/>
</g>
<path d="M22.125 61.1813C22.5788 59.3363 21.9525 58.635 20.25 58.605C19.1358 58.6241 18.0444 58.9246 17.0775 59.4788C17.0775 59.4788 17.1113 59.5238 16.5938 58.9013C16.4083 58.7096 16.1845 58.5592 15.9371 58.4597C15.6896 58.3602 15.424 58.3139 15.1575 58.3238C15.1584 57.8153 15.0457 57.3131 14.8275 56.8538C14.4525 55.995 12.2025 54.9788 10.7363 55.8525C9.27001 56.7263 8.64376 59.5575 8.58001 59.5425C5.17501 58.65 2.72252 59.3063 2.06627 60.7763C1.41002 62.2463 2.73752 63.48 2.73752 63.48C2.5755 63.736 2.49745 64.0362 2.51425 64.3388C2.53106 64.6413 2.64189 64.931 2.83127 65.1675C3.48752 66.0713 4.70627 65.805 4.70627 65.805L5.62502 66.885C5.62502 66.885 3.06377 69.51 2.40752 70.635C1.75127 71.76 1.32752 73.4325 2.48251 73.9763C2.85241 74.1313 3.25063 74.2074 3.65164 74.1997C4.05266 74.1919 4.44763 74.1005 4.81126 73.9313C4.81126 73.9313 6.13877 75.4313 7.35752 74.6513C7.69607 74.4484 7.95709 74.1381 8.0991 73.7699C8.2411 73.4016 8.25594 72.9964 8.14126 72.6188L8.51626 72.4463C8.51626 72.4463 9.17251 75.9938 11.5163 76.4625C13.86 76.9313 14.7188 72.6188 14.7188 72.6188C15.7592 72.9701 16.8247 73.2421 17.9063 73.4325C20.2238 73.875 21.0525 72.0263 20.565 69.75C20.2058 68.3056 19.4032 67.01 18.27 66.045C18.27 66.045 21.66 63.0263 22.125 61.1813ZM7.96877 72.0563C7.96877 72.0563 7.63876 71.3513 6.54751 71.5388C6.19514 71.6099 5.86172 71.7546 5.56901 71.9633C5.2763 72.172 5.03089 72.4401 4.84877 72.75C4.73421 72.9649 4.65926 73.1986 4.62752 73.44C4.62752 73.44 3.37876 73.815 2.86501 73.2375C2.35126 72.66 2.69252 71.22 3.53627 70.0313C4.31668 69.0491 5.18393 68.1392 6.12752 67.3125C6.48716 67.6242 6.86266 67.9171 7.25252 68.19C7.77002 68.5313 7.97252 68.6438 7.97252 68.6438C7.95588 69.2702 7.98722 69.8971 8.06627 70.5188C8.19002 71.19 8.26876 71.8763 8.26876 71.8763L7.96877 72.0563ZM7.84502 66.8513C7.89002 67.3538 7.90501 67.695 7.90501 67.695C7.90501 67.695 7.40627 67.3688 7.21877 67.2263C7.07901 67.1057 6.95323 66.9699 6.84377 66.8213C7.12715 66.4619 7.47106 66.1548 7.86001 65.9138C7.82322 66.2198 7.81443 66.5286 7.83376 66.8363L7.84502 66.8513ZM8.03252 63.0563C7.92752 64.3838 7.87502 64.875 7.87502 64.875C7.26743 65.298 6.72104 65.8028 6.25127 66.375C5.84648 66.1599 5.50221 65.8465 5.25002 65.4638C5.25002 65.4638 6.12377 64.4175 5.62502 63.4463C5.12627 62.475 4.20376 62.76 3.88876 62.8388C3.66728 62.9049 3.45731 63.0049 3.26627 63.135C3.26627 63.135 2.18626 61.7588 3.07877 60.915C3.97127 60.0713 5.54627 59.8238 6.90752 59.9625C8.26877 60.1013 8.43752 60.3375 8.43752 60.3375C8.23683 61.2281 8.09775 62.1315 8.02126 63.0413L8.03252 63.0563ZM15.6075 65.9625C15.6755 65.5744 15.7181 65.1824 15.735 64.7888C16.0794 64.9937 16.4078 65.2244 16.7175 65.4788C17.1563 65.805 17.265 65.9138 17.25 65.9775C16.8884 66.3823 16.496 66.7584 16.0763 67.1025C15.8181 67.3136 15.5421 67.5018 15.2513 67.665C15.2513 67.665 15.4875 66.5888 15.5963 65.9475L15.6075 65.9625ZM15 62.1038L14.9588 63.375L12.9563 62.0813L13.6613 61.6125C13.8425 61.769 14.0476 61.8956 14.2688 61.9875C14.5068 62.0563 14.7524 62.0954 15 62.1038ZM10.7063 56.775C11.49 56.055 12.63 55.9613 13.6763 56.73C14.7225 57.4988 14.505 58.3538 14.505 58.3538C14.505 58.3538 13.4588 58.7288 13.3013 59.5425C13.2055 60.0277 13.2157 60.5279 13.3313 61.0088L12.375 61.5563C11.8454 61.177 11.2917 60.8326 10.7175 60.525C9.87376 60.0863 9.36001 59.8838 9.36001 59.8838C9.36001 59.8838 9.92626 57.495 10.7063 56.775ZM8.84627 62.25C8.90897 61.7174 9.0143 61.1907 9.16127 60.675C9.66568 60.8448 10.1518 61.0647 10.6125 61.3313C10.9973 61.4981 11.3472 61.736 11.6438 62.0325C11.6438 62.0325 10.7213 62.6588 9.94127 63.2663C9.16127 63.8738 8.62502 64.26 8.62502 64.26C8.62502 64.26 8.72252 63.2288 8.84627 62.25ZM8.92501 70.5788C8.89571 70.2619 8.89571 69.9431 8.92501 69.6263L9.91127 70.3463C10.3163 70.6425 10.6275 70.86 10.6275 70.86C10.6275 70.86 9.94127 71.205 9.59627 71.3625C9.44846 71.433 9.29699 71.4956 9.14251 71.55C9.14251 71.55 9.00001 70.875 8.92501 70.5713V70.5788ZM12.615 75.4538C11.6925 76.065 10.815 75.72 10.2225 74.5463C9.81134 73.7938 9.51674 72.9833 9.34877 72.1425C9.67913 71.9666 10.0242 71.8198 10.38 71.7038C10.6921 71.5751 10.9942 71.4234 11.2838 71.25C11.7202 71.6119 12.2164 71.8949 12.75 72.0863L13.9388 72.54C13.9388 72.54 13.5338 74.8238 12.615 75.4313V75.4538ZM14.115 70.89C14.0213 71.4225 13.9425 71.7038 13.9425 71.7038L12.8175 71.3288C12.5327 71.205 12.2693 71.0367 12.0375 70.83C12.4415 70.6246 12.8322 70.3941 13.2075 70.14C13.785 69.765 14.2875 69.39 14.2875 69.39C14.2875 69.39 14.2238 70.3388 14.13 70.875L14.115 70.89ZM14.3963 68.4375C14.3963 68.4375 11.535 70.5488 11.3963 70.485C11.2575 70.4213 8.65877 68.5088 8.62502 68.43C8.59127 68.3513 8.53127 65.1975 8.62502 65.1038C8.71877 65.01 11.7975 62.8538 12.2663 62.6175C13.1933 63.1396 14.0898 63.7143 14.9513 64.3388C14.9588 64.4475 14.4113 68.415 14.4113 68.415L14.3963 68.4375ZM19.755 70.0013C20.0063 71.7825 20.175 72.4538 18.9263 72.6263C17.6775 72.7988 14.8013 71.925 14.8013 71.925C14.9422 71.2435 15.0473 70.555 15.1163 69.8625C15.1613 69.0938 15.21 68.595 15.21 68.595C15.21 68.595 16.2075 67.875 16.8 67.3688C17.3925 66.8625 17.7375 66.54 17.7375 66.54C17.7375 66.54 19.5188 68.1975 19.77 69.9788L19.755 70.0013ZM17.88 65.5013C17.4607 65.1349 17.0226 64.7907 16.5675 64.47L15.75 63.9L15.8925 61.98C16.2689 61.7708 16.5902 61.4752 16.83 61.1175C16.9725 60.8231 17.0613 60.5056 17.0925 60.18C17.0925 60.18 20.4675 58.5113 21.2963 59.5575C22.125 60.6038 19.2825 64.1813 18.72 64.7288C18.1575 65.2763 17.91 65.4788 17.91 65.4788L17.88 65.5013Z" fill="#1D1D1B"/>
<path d="M14.7375 59.01C15.4612 58.77 16.6125 59.385 16.2375 60.54C16.1704 60.7601 16.0435 60.9572 15.8709 61.1094C15.6983 61.2615 15.4868 61.3627 15.26 61.4016C15.0332 61.4405 14.8001 61.4156 14.5866 61.3297C14.3732 61.2437 14.1878 61.1002 14.0512 60.915C13.9445 60.7505 13.8773 60.5636 13.8548 60.3688C13.8323 60.174 13.8552 59.9767 13.9217 59.7922C13.9881 59.6078 14.0963 59.4412 14.2379 59.3055C14.3794 59.1698 14.5504 59.0686 14.7375 59.01Z" fill="#E6E4DA"/>
<path d="M14.7863 59.4488C14.8238 59.4188 15.0975 59.6025 15.0525 59.6513C15.0075 59.7 14.7075 59.8688 14.7863 60.15C14.865 60.4313 15.2063 60.6338 15.2063 60.6975C15.2063 60.7613 15.0525 61.0088 14.9738 60.9788C14.6979 60.7797 14.5077 60.4836 14.4413 60.15C14.4386 60.0141 14.4685 59.8795 14.5285 59.7574C14.5886 59.6354 14.6769 59.5296 14.7863 59.4488Z" fill="#1D1D1B"/>
<path d="M11.0812 64.3237C11.8312 63.9487 14.6887 64.3237 13.74 66.9787C12.9262 69.2587 9.61499 68.385 9.61499 67.0575C9.61499 65.73 9.89624 64.9162 11.0812 64.3237Z" fill="#1D1D1B"/>
<path d="M11.3475 64.8375C11.82 64.6088 12.5513 64.9313 12.8963 65.1675C13.2413 65.4038 13.2713 66.2438 13.2713 66.2438C13.2713 66.2438 12.8475 65.8388 12.7838 65.8688C12.72 65.8988 12.5963 66.0413 12.645 66.0863C12.6938 66.1313 13.2075 66.525 13.2075 66.6188C13.1704 66.7701 13.1176 66.9171 13.05 67.0575C12.8171 66.7851 12.5666 66.5283 12.3 66.2888C12.24 66.2888 12.0675 66.4613 12.0675 66.4613L12.8963 67.32L12.63 67.5075C12.63 67.5075 11.8013 66.555 11.7563 66.555C11.7113 66.555 11.535 66.6188 11.5688 66.6825C11.8582 67.0043 12.1275 67.3437 12.375 67.6988C12.3071 67.7435 12.2341 67.78 12.1575 67.8075C12.1575 67.8075 11.3288 66.9 11.28 66.9C11.2313 66.9 10.9838 67.0238 11.0325 67.0875C11.0813 67.1513 11.7075 67.875 11.7075 67.875C11.4632 67.8518 11.2262 67.7786 11.0114 67.6599C10.7965 67.5412 10.6084 67.3795 10.4588 67.185C10.005 66.555 10.125 65.43 11.3475 64.8375Z" fill="#FAB900"/>
<path d="M11.4712 65.1975C11.5837 65.1975 11.6287 65.4937 11.5987 65.5425C11.4191 65.6127 11.25 65.7073 11.0962 65.8237C10.9087 66.0112 10.9425 66.4012 10.8637 66.4162C10.7587 66.4268 10.6534 66.3988 10.5675 66.3375C10.5654 66.0716 10.641 65.811 10.785 65.5875C10.8662 65.4786 10.9691 65.3877 11.0872 65.3205C11.2053 65.2534 11.3361 65.2115 11.4712 65.1975Z" fill="#1D1D1B"/>
<path d="M6.20625 72.2588C6.69375 72.0488 7.15875 72.18 7.28625 72.7425C7.35139 73.1208 7.32438 73.5093 7.2075 73.875C7.06418 73.6105 6.89725 73.3595 6.70875 73.125C6.63 73.1063 6.4425 73.2488 6.5025 73.3125C6.5625 73.3763 7.05 73.9988 7.005 74.0625C6.96 74.1263 6.73875 74.1563 6.73875 74.1563C6.5767 73.8387 6.38855 73.5352 6.17625 73.2488C6.0975 73.2488 5.88 73.2788 5.925 73.3575C6.08414 73.6323 6.22084 73.9195 6.33375 74.2163C6.285 74.2163 5.565 74.0775 5.565 73.4363C5.565 72.795 5.7375 72.4613 6.20625 72.2588Z" fill="#CBE7F5"/>
<path d="M3.94122 63.4612C4.48497 63.3 5.03622 63.6825 5.06622 64.0425C5.04962 64.3221 4.96877 64.5942 4.82997 64.8375C4.82997 64.8375 4.47372 64.0875 4.37997 64.0875C4.28622 64.0875 4.15872 64.1812 4.19247 64.245C4.3468 64.4723 4.48225 64.7118 4.59747 64.9612C4.51611 65.0214 4.42642 65.0694 4.33122 65.1037C4.22763 64.8687 4.10207 64.6439 3.95622 64.4325C3.89247 64.4137 3.68997 64.4925 3.73872 64.5562C3.85292 64.7413 3.94243 64.9405 4.00497 65.1487C3.8526 65.0993 3.71658 65.0094 3.61153 64.8884C3.50647 64.7675 3.43636 64.6203 3.40872 64.4625C3.37497 64.0237 3.47247 63.6037 3.94122 63.4612Z" fill="#FFE19B"/>
<path d="M41.2725 124.562C41.3512 124.562 41.6475 124.671 41.82 124.529C41.9925 124.386 41.8837 124.39 41.9137 123.951C42.0345 123.098 42.2652 122.263 42.6 121.469C42.975 120.67 44.445 118.922 46.4925 117.966C48.54 117.01 50.9625 116.984 53.1787 117.531C55.395 118.079 57.7125 120.014 58.875 121.904C60.0375 123.794 59.0475 127.499 58.3912 128.984C57.735 130.469 54.75 132.201 52.5 132.295C51.5653 132.316 50.6381 132.125 49.7884 131.735C48.9387 131.345 48.1886 130.767 47.595 130.045C46.845 129.029 46.155 126.497 47.0925 124.795C47.4186 124.225 47.8898 123.751 48.4581 123.422C49.0265 123.092 49.6719 122.919 50.3287 122.92C50.985 122.871 51.5137 123.497 51.6562 123.546C51.7211 123.545 51.7848 123.529 51.8429 123.5C51.901 123.472 51.952 123.43 51.9921 123.379C52.0323 123.328 52.0607 123.269 52.0752 123.206C52.0898 123.143 52.0901 123.077 52.0762 123.014C52.0012 122.669 50.7187 121.671 48.0637 122.935C45.4087 124.199 45.75 126.779 45.9 127.922C46.05 129.066 46.68 132.122 50.5875 132.842C51.9405 133.102 53.3372 133.017 54.6482 132.593C55.9592 132.17 57.1422 131.422 58.0875 130.42C58.9312 129.452 60.1837 127.795 60.135 124.562C60.0862 121.33 59.07 120.344 56.475 118.281C53.88 116.219 49.725 116.076 47.475 116.86C45.225 117.644 42.375 119.624 41.6962 121.499C41.0175 123.374 41.1937 124.562 41.2725 124.562ZM60.0712 132.734C59.9287 132.734 59.82 133 59.6962 133.187C59.5725 133.375 58.29 135.216 56.835 136.03C55.38 136.844 52.71 137.11 50.1637 136.469C47.6175 135.827 45.1462 132.891 44.1637 129.936C43.1812 126.981 44.415 125.155 45.0375 124C45.66 122.845 47.1337 121.296 48.8362 121.139C50.5387 120.981 53.25 120.857 54.4912 122.732C55.0471 123.497 55.3678 124.407 55.4137 125.351C55.4597 126.295 55.229 127.232 54.75 128.046C53.8612 129.749 51.5587 129.456 51.4687 129.546C51.3787 129.636 51.39 130.172 51.5625 130.217C52.5017 130.22 53.4281 130 54.2662 129.576C55.2337 129.014 56.4225 127.547 55.9987 124.499C55.575 121.45 52.9987 120.422 50.655 120.374C48.3112 120.325 46.0012 120.966 44.4225 123.467C43.7759 124.429 43.3539 125.524 43.1877 126.671C43.0215 127.818 43.1154 128.988 43.4625 130.094C44.0062 132.062 45.4125 135.171 48.4612 136.701C51.51 138.231 54.8362 137.451 56.9775 136.701C59.1187 135.951 60.6187 133.154 60.6 133.06C60.5812 132.966 60.21 132.734 60.0712 132.734ZM52.8187 126.734C53.1187 124.592 51.1012 124.521 50.2725 124.716C48.2437 125.2 48.4762 127.187 49.2562 127.952C50.0362 128.717 52.5225 128.875 52.8187 126.719V126.734ZM48.21 128.312C47.6625 128.579 47.7562 129.186 48.0862 129.734C48.4162 130.281 49.6162 129.704 49.4625 129.029C49.3087 128.354 48.75 128.05 48.21 128.312ZM42.3525 127.795C42.195 127.124 41.625 126.816 41.1 127.079C40.575 127.341 40.65 127.952 40.9762 128.5C41.3025 129.047 42.5062 128.466 42.3525 127.795ZM57.585 122.672C57.585 121.967 56.835 121.487 56.4 121.81C56.303 121.874 56.2202 121.957 56.1568 122.054C56.0934 122.151 56.0506 122.26 56.0313 122.374C56.0119 122.489 56.0164 122.606 56.0443 122.719C56.0723 122.831 56.1231 122.937 56.1937 123.029C56.5237 123.482 57.6 123.374 57.585 122.672ZM44.745 125.616C44.671 125.665 44.6078 125.728 44.5596 125.803C44.5113 125.877 44.4789 125.96 44.4644 126.048C44.45 126.135 44.4538 126.224 44.4756 126.31C44.4975 126.396 44.5368 126.476 44.5912 126.546C44.8387 126.891 45.66 126.805 45.6487 126.272C45.6375 125.74 45.0712 125.372 44.745 125.616ZM51.3037 117.827C51.0924 118.003 50.9556 118.253 50.9208 118.526C50.8861 118.798 50.9559 119.074 51.1162 119.297C51.4912 119.954 52.9125 119.875 52.8375 118.735C52.7625 117.595 51.75 117.4 51.3037 117.827ZM60.8512 118.874C60.7725 117.749 59.7637 117.542 59.3212 117.966C59.1099 118.142 58.9731 118.392 58.9383 118.664C58.9036 118.937 58.9734 119.213 59.1337 119.436C59.5087 120.092 60.93 120.014 60.8512 118.874ZM42.5062 133.922C41.9775 134.234 41.805 134.875 42.0862 135.625C42.3675 136.375 44.025 136.529 44.2575 135.344C44.3085 135.115 44.2947 134.877 44.2177 134.655C44.1407 134.434 44.0036 134.239 43.8217 134.091C43.6398 133.944 43.4203 133.85 43.1879 133.82C42.9556 133.79 42.7195 133.826 42.5062 133.922ZM60.15 129.077C59.6812 129.28 59.5687 130.03 59.805 130.529C60.0412 131.027 61.275 130.904 61.305 129.985C61.335 129.066 60.57 128.894 60.15 129.077Z" fill="#1D1D1B"/>
<path d="M50.4 125.279C50.7487 125.144 51.6637 125.234 51.975 125.654C52.2862 126.074 52.1175 126.888 52.1175 126.888C52.1175 126.888 51.93 126.561 51.8812 126.561C51.8325 126.561 51.6337 126.625 51.6487 126.685C51.7385 126.875 51.8064 127.076 51.8512 127.281C51.8212 127.356 51.6187 127.593 51.57 127.529C51.5212 127.465 51.165 126.483 51.0712 126.468C50.9775 126.453 50.775 126.468 50.79 126.546C50.805 126.625 51.3187 127.623 51.2437 127.701C51.1687 127.78 50.9625 127.844 50.9137 127.731C50.865 127.619 50.5387 126.734 50.4937 126.719C50.4487 126.704 50.1487 126.794 50.1787 126.906C50.2087 127.019 50.5237 127.656 50.46 127.686C50.2191 127.639 50.0003 127.514 49.8372 127.33C49.674 127.147 49.5753 126.915 49.5562 126.67C49.4849 126.374 49.5335 126.061 49.6915 125.801C49.8496 125.54 50.1042 125.352 50.4 125.279Z" fill="#FAB900"/>
<path d="M48.4237 128.691C48.4899 128.66 48.5627 128.645 48.6358 128.649C48.7089 128.652 48.7801 128.673 48.8433 128.71C48.9064 128.747 48.9596 128.798 48.9983 128.86C49.0369 128.923 49.0598 128.993 49.065 129.066C49.1437 129.408 48.5287 129.704 48.36 129.423C48.1912 129.141 48.1462 128.826 48.4237 128.691Z" fill="#E6E4DA"/>
<path d="M41.3137 127.454C41.38 127.423 41.4526 127.409 41.5253 127.413C41.5981 127.417 41.6689 127.438 41.7318 127.475C41.7947 127.511 41.8479 127.563 41.8867 127.624C41.9255 127.686 41.949 127.756 41.955 127.829C42.0337 128.174 41.4187 128.47 41.25 128.204C41.0812 127.937 41.0362 127.592 41.3137 127.454Z" fill="#CBE7F5"/>
<path d="M56.6025 122.159C56.8162 121.998 57.1837 122.238 57.1912 122.586C57.1987 122.935 56.6625 122.991 56.5012 122.766C56.4653 122.721 56.4393 122.668 56.4249 122.612C56.4105 122.556 56.408 122.497 56.4175 122.44C56.4271 122.383 56.4484 122.328 56.4803 122.28C56.5121 122.231 56.5538 122.19 56.6025 122.159Z" fill="#CBE7F5"/>
<path d="M44.8988 125.875C45.0638 125.751 45.3413 125.935 45.3488 126.201C45.3563 126.467 44.9475 126.509 44.82 126.336C44.7932 126.301 44.774 126.261 44.7634 126.219C44.7528 126.176 44.7512 126.132 44.7586 126.088C44.766 126.045 44.7822 126.004 44.8064 125.967C44.8305 125.93 44.8619 125.899 44.8988 125.875Z" fill="#DDC07C"/>
<path d="M51.5662 118.206C51.8062 117.974 52.3575 118.079 52.4025 118.701C52.4076 118.813 52.3758 118.924 52.3119 119.017C52.248 119.109 52.1556 119.178 52.0488 119.213C51.942 119.248 51.8267 119.247 51.7206 119.21C51.6145 119.173 51.5234 119.102 51.4612 119.009C51.3746 118.886 51.3373 118.736 51.3567 118.587C51.3762 118.438 51.451 118.302 51.5662 118.206Z" fill="#85BFE9"/>
<path d="M59.58 118.349C59.8237 118.116 60.375 118.218 60.4162 118.844C60.423 118.956 60.3924 119.068 60.329 119.161C60.2657 119.254 60.1732 119.324 60.0661 119.359C59.959 119.394 59.8433 119.393 59.737 119.355C59.6307 119.318 59.5399 119.246 59.4787 119.151C59.3908 119.03 59.3523 118.879 59.3711 118.73C59.3899 118.581 59.4646 118.445 59.58 118.349Z" fill="#92A0D1"/>
<path d="M42.7275 134.309C42.8644 134.247 43.0157 134.224 43.1647 134.243C43.3136 134.263 43.4543 134.323 43.5711 134.417C43.6878 134.512 43.7759 134.637 43.8256 134.779C43.8753 134.921 43.8846 135.073 43.8525 135.22C43.7025 135.97 42.6412 135.891 42.4612 135.4C42.3622 135.218 42.3347 135.005 42.3839 134.803C42.4331 134.601 42.5556 134.425 42.7275 134.309Z" fill="#FFE19B"/>
<path d="M52.65 133.81C52.8648 133.712 53.1027 133.677 53.3367 133.708C53.5706 133.738 53.7913 133.834 53.9734 133.984C54.1555 134.134 54.2918 134.333 54.3668 134.556C54.4418 134.78 54.4524 135.02 54.3975 135.25C54.165 136.435 52.5225 136.296 52.2262 135.531C51.93 134.766 52.125 134.125 52.65 133.81Z" fill="#1D1D1B"/>
<path d="M52.875 134.2C53.0118 134.137 53.1636 134.113 53.3133 134.131C53.4629 134.15 53.6043 134.21 53.7215 134.305C53.8387 134.4 53.9269 134.526 53.9761 134.668C54.0253 134.811 54.0336 134.964 54 135.111C53.85 135.861 52.7887 135.782 52.6087 135.291C52.4287 134.8 52.5262 134.402 52.875 134.2Z" fill="#DDC07C"/>
<path d="M60.3 129.452C60.3757 129.42 60.4586 129.409 60.5401 129.42C60.6216 129.431 60.6987 129.464 60.7631 129.515C60.8276 129.566 60.8771 129.633 60.9065 129.71C60.9359 129.787 60.944 129.87 60.93 129.951C60.93 130.461 60.24 130.529 60.1125 130.255C60.0397 130.122 60.0186 129.966 60.0532 129.818C60.0878 129.67 60.1756 129.54 60.3 129.452Z" fill="#E6E4DA"/>
<path d="M17.005 98.0275C18.2947 97.2766 19.7362 96.8242 21.2237 96.7037C22.8175 96.625 24.28 97 26.3087 97.9712C28.3375 98.9425 29.4587 99.8687 30.3175 101.462C31.1762 103.056 31.6412 104.23 31.1725 106.304C30.7037 108.377 30.5612 110.462 29.7287 111.902C28.8962 113.342 27.505 114.34 25.4425 114.857C23.38 115.375 20.4475 115.712 17.9162 114.317C15.385 112.922 13.6037 110.849 12.9475 107.98C12.2912 105.111 12.8312 103.619 13.3225 102.272C14.0571 100.496 15.3496 99.0057 17.005 98.0275Z" fill="#1D1D1B"/>
<path d="M17.7063 98.2413C18.6016 97.7467 19.5783 97.4165 20.59 97.2663C22.09 97.09 24.5163 97.7613 24.7713 97.8775C25.0263 97.9938 25.24 98.065 25.1463 98.1363C25.0525 98.2075 24.1975 98.9538 23.8938 99.0025C23.59 99.0513 22.5363 98.7925 21.7375 98.8263C20.9388 98.86 20.4025 99.0138 20.0163 99.0138C19.63 99.0138 19.0788 98.59 18.7038 98.5563C18.3288 98.5225 17.53 98.335 17.7063 98.2413Z" fill="#4EAE4D"/>
<path d="M16.9675 98.8263C17.4854 98.6744 18.0411 98.7198 18.5275 98.9538C19.135 99.2838 19.0675 99.4225 19.8962 99.4113C20.725 99.4 21.13 99.2613 21.3737 99.3175C21.6175 99.3738 22.6525 99.8238 23.5675 99.6475C24.1449 99.5517 24.6934 99.3274 25.1725 98.9913C25.4425 98.815 25.6037 98.5225 25.7687 98.545C25.9337 98.5675 27.4225 99.4488 27.3962 99.5425C27.2339 99.7816 27.0132 99.9752 26.755 100.105C26.282 100.421 25.9169 100.873 25.7087 101.403C25.5212 101.954 25.4162 103.608 25.6637 103.773C25.9112 103.938 26.5412 103.701 26.7887 103.889C27.0362 104.076 27.0925 104.661 27.505 104.71C27.9175 104.759 28.09 104.451 28.465 104.71C28.84 104.969 28.84 105.164 29.425 105.179C30.01 105.194 30.55 105.059 30.5837 105.179C30.6221 105.358 30.6065 105.545 30.5387 105.715C30.4787 105.753 28.4987 105.985 28.03 106.011C27.5612 106.038 27.655 106.139 27.3962 106.011C27.1375 105.884 26.7287 105.4 26.125 105.306C25.5212 105.213 23.6762 105.096 23.3125 105.096C22.9487 105.096 22.8437 105.096 22.8062 105.273C22.7687 105.449 22.8437 107.215 22.6562 107.793C22.4687 108.37 22.5962 109.315 23.275 109.585C23.9537 109.855 24.6587 109.994 24.7525 110.241C24.8462 110.489 25.1762 112.116 25.4687 112.668C25.7612 113.219 26.17 113.849 26.0312 113.965C25.3152 114.271 24.5564 114.466 23.7812 114.543C23.0615 114.631 22.3335 114.631 21.6137 114.543C21.6137 114.543 21.1787 112.293 21.0625 112.09C20.9365 111.816 20.8835 111.513 20.9087 111.213C20.9575 111.059 21.7862 109.386 21.6812 108.963C21.5762 108.539 21.4112 108.108 21.025 108.003C20.6387 107.898 19.9937 108.003 18.9512 108.003C18.28 108.012 17.6094 107.957 16.9487 107.838C16.7387 107.793 16.6187 107.838 16.525 107.733C16.4312 107.628 15.67 106.233 15.775 106.105C15.88 105.978 16.9487 105.67 16.9937 105.423C17.0387 105.175 16.9712 104.579 17.2412 104.556C17.5112 104.534 18.6925 104.699 19.0675 104.5C19.4425 104.301 19.4912 103.844 19.5025 103.443C19.5137 103.041 19.3637 102.168 19.1875 102.003C19.0112 101.838 17.3125 101.324 16.6675 100.983C16.0225 100.641 15.4787 100.375 15.55 100.15C15.9246 99.6144 16.4075 99.1634 16.9675 98.8263Z" fill="#85BFE9"/>
<path d="M17.6837 99.625C17.8862 99.5988 17.905 99.7563 17.8337 99.895C17.7625 100.034 17.8337 100.54 18.0587 100.529C18.8503 100.35 19.6517 100.217 20.4587 100.131C21.4848 100.18 22.4969 100.389 23.4587 100.75C23.74 100.904 23.8712 101.5 23.8937 101.676C23.6236 102.402 23.278 103.097 22.8625 103.75C22.7575 103.806 21.6662 103.375 20.8825 103C20.0987 102.625 19.7575 102.449 19.7237 102.295C19.6916 102.076 19.6285 101.863 19.5362 101.661C19.465 101.628 18.4112 101.556 17.905 101.253C17.3987 100.949 16.945 100.454 17.0387 100.244C17.1891 99.9793 17.4132 99.7643 17.6837 99.625Z" fill="#1D1D1B"/>
<path d="M19.135 100.701C20.041 100.58 20.9613 100.62 21.8537 100.818C23.05 101.054 23.2375 101.253 23.2037 101.545C23.17 101.838 22.7237 103.045 22.5587 102.985C21.877 102.758 21.2117 102.485 20.5675 102.168C20.485 102.048 20.4587 101.463 20.11 101.358C19.7612 101.253 19.03 101.028 18.7862 100.934C18.5425 100.84 18.5987 100.746 18.655 100.746C18.7112 100.746 19.135 100.701 19.135 100.701Z" fill="#4EAE4D"/>
<path d="M27.8425 99.7037C27.9213 99.6775 28.945 100.105 29.6463 101.44C30.3475 102.775 30.5725 104.417 30.49 104.567C30.4075 104.717 30.1525 104.732 29.9163 104.661C29.68 104.59 28.75 104.076 28.5475 104.076C28.345 104.076 28.0188 104.253 27.88 104.076C27.7413 103.9 27.3175 103.375 26.8938 103.375C26.47 103.375 26.38 103.446 26.3088 103.352C26.2375 103.259 26.005 101.279 26.4475 100.915C26.89 100.551 27.28 100.319 27.4563 100.165C27.6325 100.011 27.7375 99.7412 27.8425 99.7037Z" fill="#4EAE4D"/>
<path d="M23.3912 105.625C23.5262 105.625 25.5362 105.475 25.9337 105.861C26.3312 106.248 26.6612 106.668 26.9987 106.656C27.3362 106.645 30.445 106.375 30.445 106.495C30.445 106.615 30.0925 109.308 29.5525 110.676C29.1294 111.739 28.4095 112.658 27.4787 113.324C27.0475 113.571 26.6012 113.665 26.5675 113.594C26.1742 112.898 25.8849 112.149 25.7087 111.37C25.4537 110.163 25.3825 109.6 24.985 109.495C24.5875 109.39 23.6012 109.158 23.4137 108.921C23.2869 108.708 23.2147 108.468 23.2037 108.22C23.2037 108.22 23.3087 106.765 23.3087 106.45C23.3087 106.135 23.32 105.625 23.3912 105.625Z" fill="#4EAE4D"/>
<path d="M16.5363 108.329C17.1133 108.559 17.7298 108.675 18.3513 108.67C19.5925 108.692 20.8113 108.554 20.9425 108.704C21.0738 108.854 21.0475 109.371 20.7775 109.866C20.6073 110.18 20.4583 110.504 20.3313 110.837C19.961 110.495 19.5648 110.182 19.1463 109.9C19.0976 109.921 19.058 109.958 19.0346 110.006C19.0112 110.053 19.0056 110.107 19.0188 110.159C19.0675 110.264 20.1438 110.991 20.1925 111.085C20.1998 111.304 20.1872 111.524 20.155 111.741C19.8027 111.416 19.4266 111.118 19.03 110.849C18.8913 110.826 18.7975 111.167 18.8425 111.224C18.8875 111.28 20.1663 112.161 20.3425 112.315C20.5166 112.604 20.6242 112.928 20.6575 113.264C20.6238 113.264 19.195 112.105 19.1125 112.09C19.03 112.075 19.0075 112.465 19.0075 112.465C19.0075 112.465 20.695 113.661 20.7513 113.755C20.8411 113.98 20.8967 114.218 20.9163 114.46C20.4614 114.372 20.0119 114.258 19.57 114.119C19.1013 113.942 18.6888 113.849 18.6888 113.815C18.6888 113.781 18.25 112.397 17.635 111.797C17.2957 111.509 16.9979 111.174 16.75 110.804C16.6783 110.342 16.6345 109.876 16.6188 109.409C16.6038 109.09 16.465 108.329 16.5363 108.329Z" fill="#4EAE4D"/>
<path d="M13.945 108.4C14.0163 108.261 14.905 108.494 15.3288 108.659C15.7525 108.824 15.8913 109.034 15.9025 109.36C15.9138 109.686 15.8538 111.108 16.1463 111.366C16.6126 111.69 17.005 112.109 17.2975 112.596C17.4673 112.847 17.5941 113.125 17.6725 113.418C16.8022 112.887 16.0483 112.185 15.4563 111.355C14.26 109.806 13.9113 108.471 13.945 108.4Z" fill="#85BFE9"/>
<path d="M13.6037 107.567C13.253 106.389 13.2375 105.136 13.5587 103.949C14.0725 101.815 15.0587 100.679 15.1412 100.69C15.2237 100.701 17.1662 101.815 17.9537 102.19C18.7412 102.565 18.7862 102.565 18.8425 102.73C18.8883 103.149 18.8642 103.572 18.7712 103.982C18.7037 104.016 17.2975 103.949 16.8962 103.982C16.495 104.016 16.375 104.579 16.405 104.804C16.435 105.029 16.4537 105.13 16.36 105.201C16.2662 105.272 15.01 105.61 14.9425 105.951C14.875 106.292 15.8312 107.965 15.6925 108.014C15.5537 108.062 13.9787 107.954 13.6037 107.567Z" fill="#4EAE4D"/>
<path d="M14.26 103.443C14.3588 102.973 14.5045 102.514 14.695 102.074C14.8825 101.793 14.965 101.733 15.0475 101.755C15.13 101.778 15.3625 101.886 15.34 101.954C15.3175 102.021 14.9163 102.798 14.8113 103.139C14.7063 103.48 14.8113 103.48 14.6613 103.514C14.5113 103.548 14.3088 103.525 14.26 103.443Z" fill="#1D1D1B"/>
<path d="M25 99.8462C25.06 99.7937 25.9487 99.5762 26.0087 99.6587C26.0687 99.7412 26.1362 99.8237 26.0762 99.8687C25.7639 100.025 25.434 100.143 25.0937 100.221C25.0187 100.184 24.925 99.9025 25 99.8462Z" fill="#1D1D1B"/>
<path d="M24.4225 102.599C24.4787 102.659 24.9737 103.454 24.9137 103.525C24.8537 103.596 24.9137 103.701 24.7862 103.641C24.5353 103.409 24.3381 103.125 24.2087 102.809C24.25 102.715 24.4225 102.599 24.4225 102.599Z" fill="#1D1D1B"/>
<path d="M23.875 103.139C24.1184 103.375 24.3348 103.638 24.52 103.922C24.52 103.994 24.52 104.099 24.4037 104.065C24.1353 103.874 23.8997 103.641 23.7062 103.375C23.7062 103.315 23.875 103.127 23.875 103.139Z" fill="#1D1D1B"/>
<path d="M28.4987 101.369C28.8381 101.459 29.1565 101.614 29.4362 101.826C29.4362 101.897 29.4737 102.085 29.38 102.047C29.2862 102.01 28.4275 101.672 28.3937 101.627C28.36 101.582 28.4875 101.38 28.4987 101.369Z" fill="#1D1D1B"/>
<path d="M28.4162 102.25C28.4462 102.209 29.9162 103.068 29.9162 103.199C29.9162 103.33 30.0475 103.42 29.8937 103.398C29.3419 103.17 28.809 102.899 28.3 102.588C28.255 102.516 28.375 102.306 28.4162 102.25Z" fill="#1D1D1B"/>
<path d="M28.2775 103C28.9163 103.261 29.5248 103.59 30.0925 103.983C30.115 104.088 30.1975 104.204 30.0475 104.193C29.4107 103.938 28.7918 103.641 28.195 103.304C28.1613 103.255 28.2288 103.022 28.2775 103Z" fill="#1D1D1B"/>
<path d="M28.63 107.324C29.0437 107.614 29.4104 107.965 29.7175 108.366C29.6838 108.46 29.7175 108.505 29.6125 108.471C29.1918 108.168 28.8001 107.827 28.4425 107.451C28.465 107.391 28.57 107.346 28.63 107.324Z" fill="#1D1D1B"/>
<path d="M28.0413 108.036C28.4914 108.397 28.9115 108.793 29.2975 109.221C29.2975 109.315 29.2488 109.398 29.2038 109.386C28.7536 109.035 28.3229 108.66 27.9138 108.261C27.9507 108.183 27.9934 108.108 28.0413 108.036Z" fill="#1D1D1B"/>
<path d="M27.6663 108.797C28.126 109.169 28.5468 109.586 28.9225 110.042C28.8963 110.136 28.945 110.192 28.8288 110.181C28.3641 109.814 27.9221 109.42 27.505 109C27.5513 108.927 27.6053 108.859 27.6663 108.797Z" fill="#1D1D1B"/>
<path d="M27.3738 109.42C27.8326 109.795 28.2603 110.206 28.6525 110.65C28.6525 110.744 28.615 110.804 28.57 110.766C28.0687 110.407 27.5879 110.02 27.13 109.607C27.1512 109.558 27.1848 109.515 27.2274 109.482C27.2701 109.449 27.3205 109.428 27.3738 109.42Z" fill="#1D1D1B"/>
<path d="M27.1412 110.545C27.5658 110.834 27.9515 111.177 28.2887 111.565C28.2887 111.647 28.2287 111.704 28.195 111.692C27.7778 111.404 27.3783 111.091 26.9987 110.755C26.9875 110.684 27.115 110.556 27.1412 110.545Z" fill="#1D1D1B"/>
<path d="M26.875 111.224C26.9388 111.224 28.0938 112.233 28 112.326C27.9062 112.42 27.955 112.465 27.8613 112.431C27.4396 112.132 27.0467 111.794 26.6875 111.423C26.7287 111.366 26.8112 111.224 26.875 111.224Z" fill="#1D1D1B"/>
<path d="M23.1925 110.286C23.2263 110.234 23.6838 110.402 23.6725 110.511C23.6613 110.62 23.6725 110.639 23.6125 110.639C23.4137 110.615 23.22 110.559 23.0388 110.474C23.0388 110.429 23.1663 110.324 23.1925 110.286Z" fill="#1D1D1B"/>
<path d="M22.4275 111.73C22.4961 111.7 22.5702 111.685 22.645 111.685C22.7198 111.685 22.7938 111.7 22.8625 111.73C23.0387 111.812 23.2975 112.105 23.53 112.142C23.7625 112.18 23.9425 112.037 23.9987 112.071C24.0288 112.088 24.0516 112.115 24.0627 112.148C24.0738 112.18 24.0724 112.216 24.0587 112.247C24.0212 112.307 23.9987 112.364 23.905 112.386C23.7173 112.442 23.5155 112.421 23.3425 112.33C23.125 112.184 22.99 112 22.75 112C22.51 112 22.5362 112.045 22.4912 112C22.4462 111.955 22.3337 111.809 22.4275 111.73Z" fill="#1D1D1B"/>
<path d="M19.75 109.056C19.8438 109.116 20.5225 109.712 20.5 109.806C20.4775 109.9 20.4288 109.994 20.3575 109.971C20.0582 109.783 19.7868 109.553 19.5513 109.289C19.5475 109.199 19.75 109.056 19.75 109.056Z" fill="#1D1D1B"/>
<path d="M19.0788 105.411C19.1238 105.411 20.1325 106.983 20.05 107.065C19.9675 107.148 19.9225 107.23 19.8738 107.181C19.4876 106.66 19.132 106.116 18.8088 105.554C18.8814 105.479 18.9759 105.429 19.0788 105.411Z" fill="#1D1D1B"/>
<path d="M19.465 105.25C19.465 105.205 19.6863 105.108 19.7575 105.179C19.9714 105.496 20.144 105.838 20.2713 106.199C20.2375 106.266 20.2713 106.375 20.1775 106.304C19.9067 105.976 19.668 105.623 19.465 105.25Z" fill="#1D1D1B"/>
<path d="M21.5275 105.141C21.5575 105.1 21.9025 104.766 22.0075 104.766C22.1125 104.766 22.3825 104.766 22.3488 104.849C22.315 104.931 21.82 105.565 21.7263 105.505C21.6204 105.41 21.5503 105.282 21.5275 105.141Z" fill="#1D1D1B"/>
<defs>
<clipPath id="clip0_2_91">
<rect width="32" height="32" fill="white" transform="translate(109)"/>
</clipPath>
<clipPath id="clip1_2_91">
<rect width="32" height="32" fill="white" transform="matrix(-1 0 0 -1 264 148)"/>
</clipPath>
<clipPath id="clip2_2_91">
<rect width="24" height="24" fill="white" transform="translate(21.9249 22) rotate(7)"/>
</clipPath>
</defs>
</svg>
